<?xml version="1.0" standalone="no"?>
<!DOCTYPE svg PUBLIC "-//W3C//DTD SVG 20010904//EN"
 "http://www.w3.org/TR/2001/REC-SVG-20010904/DTD/svg10.dtd">
<svg version="1.0" xmlns="http://www.w3.org/2000/svg"
 width="225.000000pt" height="225.000000pt" viewBox="0 0 225.000000 225.000000"
 preserveAspectRatio="xMidYMid meet">

<g transform="translate(0.000000,225.000000) scale(0.100000,-0.100000)"
fill="#000000" stroke="none">
<path d="M514 1430 c-11 -4 -25 -14 -31 -21 -6 -8 -55 -129 -108 -269 -105
-276 -108 -291 -52 -318 22 -11 32 -11 54 0 24 11 37 38 90 177 34 90 64 165
66 167 2 2 28 -60 57 -139 67 -178 76 -196 103 -206 32 -12 77 7 88 37 8 22
-5 67 -87 281 -53 141 -103 263 -111 273 -18 20 -43 27 -69 18z"/>
<path d="M776 1286 c-15 -14 -26 -33 -26 -44 0 -10 17 -63 38 -118 21 -54 55
-143 76 -196 31 -80 41 -98 64 -106 29 -10 65 -1 78 20 5 7 25 56 45 108 l37
95 15 -37 c9 -20 25 -64 37 -97 25 -68 48 -93 85 -93 40 -1 58 24 95 126 19
52 37 93 41 90 3 -2 21 -44 39 -93 35 -97 55 -123 95 -123 40 0 58 24 95 126
19 52 37 93 41 90 3 -2 21 -44 39 -93 17 -49 40 -97 51 -107 24 -22 67 -21 89
2 10 11 51 106 91 212 63 167 71 196 61 217 -16 35 -56 49 -90 33 -21 -10 -35
-35 -66 -117 -31 -80 -42 -99 -48 -85 -5 11 -23 57 -41 104 -38 98 -65 122
-114 98 -25 -12 -51 -64 -106 -212 -2 -5 -21 38 -43 95 -32 83 -46 107 -67
117 -22 11 -32 11 -54 0 -22 -11 -36 -34 -67 -116 -27 -68 -43 -98 -48 -88 -4
7 -21 51 -38 97 -34 93 -43 105 -82 114 -40 10 -68 -25 -107 -133 -38 -105
-35 -106 -81 19 -34 93 -43 105 -82 114 -21 5 -33 1 -52 -19z"/>
<path d="M473 894 c-8 -22 13 -63 39 -73 31 -11 60 1 78 32 12 21 12 28 1 41
-18 22 -109 22 -118 0z"/>
</g>
</svg>
