<?xml version="1.0" standalone="no"?>
<!DOCTYPE svg PUBLIC "-//W3C//DTD SVG 20010904//EN"
 "http://www.w3.org/TR/2001/REC-SVG-20010904/DTD/svg10.dtd">
<svg version="1.0" xmlns="http://www.w3.org/2000/svg"
 width="900.000000pt" height="500.000000pt" viewBox="0 0 900.000000 500.000000"
 preserveAspectRatio="xMidYMid meet">

<g transform="translate(0.000000,500.000000) scale(0.100000,-0.100000)"
fill="#000000" stroke="none">
<path d="M3780 2660 l0 -790 100 0 101 0 -3 723 c-3 799 1 753 -68 810 -28 24
-86 47 -117 47 -10 0 -13 -165 -13 -790z"/>
<path d="M180 2655 l0 -785 100 0 100 0 0 339 0 338 93 5 c121 6 178 37 206
111 15 38 15 626 0 664 -5 15 -22 40 -37 56 -43 45 -105 57 -294 57 l-168 0 0
-785z m310 566 c6 -12 10 -107 10 -240 0 -241 -2 -251 -60 -251 -58 0 -60 9
-60 259 0 163 3 230 12 239 20 20 86 15 98 -7z"/>
<path d="M2590 2655 l0 -785 95 0 95 0 0 521 c0 339 4 527 10 540 8 14 21 19
50 19 73 0 70 21 70 -562 l0 -518 95 0 95 0 0 553 c-1 581 -2 600 -47 649 -38
43 -87 58 -183 58 l-90 0 0 155 0 155 -95 0 -95 0 0 -785z"/>
<path d="M6050 3340 l0 -100 80 0 80 0 0 -685 0 -685 95 0 95 0 0 685 0 685
80 0 80 0 0 100 0 100 -255 0 -255 0 0 -100z"/>
<path d="M7398 3288 l-3 -153 -100 -5 c-55 -3 -109 -11 -120 -17 -31 -18 -73
-65 -84 -96 -7 -19 -11 -197 -11 -521 l0 -493 23 -43 c16 -30 37 -51 67 -67
41 -22 54 -23 232 -23 l188 0 0 785 0 785 -95 0 -94 0 -3 -152z m-10 -360 c15
-15 17 -854 2 -878 -5 -9 -25 -15 -50 -15 -25 0 -45 6 -50 15 -6 9 -10 193
-10 437 0 370 2 423 16 437 18 19 75 21 92 4z"/>
<path d="M914 3117 c-59 -29 -116 -91 -132 -146 -8 -23 -12 -115 -12 -237 0
-177 2 -202 20 -238 33 -67 78 -89 193 -94 l97 -4 0 -184 c0 -171 -1 -184 -19
-194 -29 -15 -67 -12 -85 6 -12 12 -16 37 -16 105 l0 89 -95 0 -95 0 0 -87 c0
-101 17 -148 71 -202 50 -49 113 -75 184 -74 108 1 198 62 235 159 17 48 20
78 20 237 0 100 -5 198 -10 217 -11 41 -61 94 -103 109 -16 6 -69 11 -118 11
l-89 0 0 144 c0 178 5 196 59 196 21 0 43 -6 49 -13 6 -7 12 -42 14 -77 l3
-65 99 -3 98 -3 -4 93 c-5 120 -36 183 -116 236 -45 30 -62 36 -125 39 -61 3
-80 0 -123 -20z"/>
<path d="M2122 3114 c-57 -28 -96 -69 -123 -129 -17 -37 -19 -76 -19 -479 0
-311 3 -450 12 -478 17 -57 88 -133 146 -155 56 -21 143 -22 193 -1 50 22 106
74 131 122 16 30 23 65 26 134 l4 92 -96 0 -96 0 0 -68 c0 -84 -16 -112 -65
-112 -65 0 -65 -3 -65 447 0 237 4 412 10 427 8 23 15 26 55 26 40 0 47 -3 55
-26 6 -14 10 -50 10 -80 l0 -54 95 0 95 0 0 68 c0 38 -7 91 -15 118 -43 146
-214 217 -353 148z"/>
<path d="M3368 3130 c-52 -16 -113 -67 -143 -122 l-30 -53 -3 -434 c-2 -362 0
-441 12 -485 39 -130 180 -210 309 -172 79 23 130 64 163 133 l29 58 0 430 c0
478 -2 494 -63 566 -64 74 -179 108 -274 79z m126 -206 c14 -14 16 -67 16
-435 0 -406 -1 -420 -20 -439 -26 -26 -55 -25 -80 0 -20 20 -21 30 -18 446 3
463 1 444 60 444 15 0 34 -7 42 -16z"/>
<path d="M4205 3117 c-59 -28 -117 -89 -136 -143 -20 -55 -20 -891 -1 -946 21
-60 65 -111 123 -143 140 -76 319 -2 364 149 21 69 22 835 2 913 -18 68 -50
113 -109 153 -41 28 -58 34 -120 37 -62 3 -81 0 -123 -20z m149 -193 c14 -14
16 -67 16 -437 0 -232 -4 -428 -8 -434 -13 -21 -65 -26 -87 -9 -19 14 -20 26
-20 439 0 345 3 427 14 440 17 21 65 22 85 1z"/>
<path d="M4799 3112 c-60 -31 -113 -93 -129 -150 -6 -23 -10 -211 -10 -496 0
-445 1 -461 21 -502 32 -68 74 -88 194 -94 l100 -5 3 -57 3 -58 -146 0 -145 0
0 -100 0 -100 163 0 c214 1 257 16 298 105 17 37 19 80 19 655 0 393 -4 628
-10 652 -28 101 -135 178 -245 178 -49 0 -74 -6 -116 -28z m162 -189 c11 -13
14 -94 14 -433 0 -339 -3 -420 -14 -433 -16 -20 -81 -23 -99 -5 -16 16 -17
839 -2 869 14 25 81 27 101 2z"/>
<path d="M6645 3121 c-61 -28 -105 -70 -131 -126 l-24 -50 0 -439 c0 -310 3
-450 12 -478 17 -57 88 -133 146 -155 56 -21 143 -22 193 -1 49 21 106 74 132
122 22 40 22 51 25 471 2 293 0 446 -8 482 -32 148 -208 237 -345 174z m149
-203 c14 -19 16 -78 16 -435 0 -400 -1 -414 -20 -433 -26 -26 -64 -26 -90 0
-19 19 -20 33 -20 437 0 373 2 418 17 435 23 26 78 24 97 -4z"/>
<path d="M1370 2583 c0 -346 4 -562 10 -585 13 -44 52 -93 91 -113 19 -10 59
-15 124 -15 l95 0 0 -150 0 -150 95 0 95 0 0 780 0 780 -95 0 -95 0 0 -538 c0
-405 -3 -541 -12 -550 -16 -16 -80 -16 -96 0 -9 9 -12 145 -12 550 l0 538
-100 0 -100 0 0 -547z"/>
<path d="M5250 2568 c0 -548 1 -563 21 -604 32 -68 74 -88 194 -94 l100 -5 3
-147 3 -148 94 0 95 0 0 780 0 780 -95 0 -95 0 0 -531 c0 -346 -4 -537 -10
-550 -15 -27 -95 -27 -110 0 -6 13 -10 204 -10 550 l0 531 -95 0 -95 0 0 -562z"/>
<path d="M7720 3030 l0 -100 140 0 140 0 0 -59 0 -58 -93 -5 c-97 -5 -136 -19
-173 -60 -48 -52 -49 -57 -52 -376 -4 -320 2 -381 40 -434 41 -58 81 -68 291
-68 l187 0 0 543 c0 298 -5 560 -10 581 -12 54 -38 87 -90 114 -41 20 -58 22
-212 22 l-168 0 0 -100z m271 -407 c20 -23 26 -516 7 -553 -17 -32 -86 -41
-109 -14 -20 25 -21 543 0 567 18 22 84 22 102 0z"/>
<path d="M8290 2567 l0 -564 23 -44 c35 -65 73 -83 192 -89 l100 -5 3 -147 3
-148 94 0 95 0 0 780 0 780 -95 0 -95 0 0 -531 c0 -346 -4 -537 -10 -550 -15
-27 -95 -27 -110 0 -6 13 -10 204 -10 550 l0 531 -95 0 -95 0 0 -563z"/>
</g>
</svg>
